<svg width="39" height="30" viewBox="0 0 39 30" fill="none" xmlns="http://www.w3.org/2000/svg">
<path d="M2.23828 6.09775V22.6831C2.23828 23.9769 2.75222 25.2176 3.66703 26.1324C4.58184 27.0472 5.82259 27.5612 7.11633 27.5612H9.18462C10.0623 27.5594 10.9283 27.3604 11.7187 26.9787C12.509 26.5971 13.2034 26.0426 13.7505 25.3563L16.7554 21.6099C17.121 21.1542 17.5844 20.7863 18.1112 20.5336C18.638 20.2808 19.2149 20.1496 19.7993 20.1496C20.3836 20.1496 20.9605 20.2808 21.4873 20.5336C22.0141 20.7863 22.4775 21.1542 22.8432 21.6099L25.848 25.3563C26.3951 26.0426 27.0895 26.5971 27.8799 26.9787C28.6702 27.3604 29.5362 27.5594 30.4139 27.5612H32.4822C33.7759 27.5612 35.0167 27.0472 35.9315 26.1324C36.8463 25.2176 37.3602 23.9769 37.3602 22.6831V6.09775C37.3602 5.06276 36.9491 4.07016 36.2172 3.33831C35.4854 2.60646 34.4928 2.19531 33.4578 2.19531H6.14072C5.10573 2.19531 4.11313 2.60646 3.38128 3.33831C2.64943 4.07016 2.23828 5.06276 2.23828 6.09775Z" fill="#C3C8D8" stroke="#C3C8D8" stroke-width="3" stroke-linecap="round" stroke-linejoin="round"/>
</svg>
